<?xml version="1.0" encoding="UTF-8" standalone="no"?>
<!-- Created with Inkscape (http://www.inkscape.org/) -->

<svg
   version="1.1"
   id="svg1"
   width="153.60001"
   height="229.75999"
   viewBox="0 0 153.60001 229.75999"
   sodipodi:docname="atticus2.svg"
   inkscape:version="1.4 (e7c3feb100, 2024-10-09)"
   xmlns:inkscape="http://www.inkscape.org/namespaces/inkscape"
   xmlns:sodipodi="http://sodipodi.sourceforge.net/DTD/sodipodi-0.dtd"
   xmlns="http://www.w3.org/2000/svg"
   xmlns:svg="http://www.w3.org/2000/svg">
  <defs
     id="defs1" />
  <sodipodi:namedview
     id="namedview1"
     pagecolor="#ffffff"
     bordercolor="#000000"
     borderopacity="0.25"
     inkscape:showpageshadow="2"
     inkscape:pageopacity="0.0"
     inkscape:pagecheckerboard="0"
     inkscape:deskcolor="#d1d1d1"
     inkscape:zoom="2.8406144"
     inkscape:cx="76.74396"
     inkscape:cy="114.93992"
     inkscape:window-width="1898"
     inkscape:window-height="1144"
     inkscape:window-x="0"
     inkscape:window-y="0"
     inkscape:window-maximized="1"
     inkscape:current-layer="g1" />
  <g
     inkscape:groupmode="layer"
     inkscape:label="Image"
     id="g1">
    <path
       style="fill:#000000"
       d="m 73.09716,228.7221 -1.68,-0.51438 v -1.9182 c 0,-1.64457 -0.0666,-1.86294 -0.46674,-1.53084 -0.25671,0.21305 -0.58071,0.95478 -0.72,1.64828 l -0.25326,1.26093 -2.64259,-1.27884 -2.64259,-1.27885 1.09181,-1.70677 c 1.78972,-2.79778 3.31591,-6.88317 4.48112,-11.99532 0.92203,-4.04523 -0.44997,-1.43775 -3.1579,6.00157 -2.83677,7.79328 -2.76916,7.69633 -4.4467,6.37678 l -0.84315,-0.66323 -0.004,-6.45677 -0.004,-6.45678 -0.87646,1.11395 c -2.22179,2.82384 -2.1227,2.39338 0.42797,-1.85922 3.54518,-5.91069 7.4319,-13.43742 9.03408,-17.49472 2.10395,-5.32796 1.89502,-5.79338 -0.50275,-1.12 -1.21906,2.376 -3.79669,7.272 -5.72808,10.88 -1.93138,3.608 -4.43772,8.46429 -5.56964,10.79175 -1.59433,3.27829 -2.19978,4.23361 -2.68715,4.24 -0.90966,0.0119 -4.83107,-4.14751 -6.93104,-7.35176 -2.06751,-3.15469 -5.5065,-9.24575 -5.5065,-9.75297 0,-0.19091 2.34539,-4.14781 5.21198,-8.7931 4.83686,-7.83809 5.17026,-8.4765 4.63217,-8.86995 -0.78267,-0.57231 -0.76765,-0.5759 -2.85795,0.68281 -1.66369,1.00183 -5.22664,2.34463 -7.65542,2.88517 -0.74683,0.16621 -0.86772,0.12342 -0.59847,-0.21183 1.86938,-2.32765 3.81458,-5.22908 4.66166,-6.95329 l 1.03269,-2.10201 -0.0399,-8.48241 c -0.022,-4.66533 -0.17079,-8.81088 -0.33073,-9.21234 -0.17224,-0.43232 -1.39545,-1.3667 -3.00008,-2.2917 l -2.70927,-1.56177 -0.56815,0.6917 c -1.13185,1.37798 -5.83119,9.08241 -7.33345,12.023 -0.87745,1.71755 -1.5384,3.4455 -1.5384,4.02192 0,2.10564 1.76944,6.78965 4.15555,11.00045 0.70645,1.24668 1.28445,2.34311 1.28445,2.43651 0,0.78468 -3.57502,-0.7426 -5.0755,-2.16829 -1.51389,-1.43844 -2.25527,-3.33985 -2.95624,-7.58189 -1.14547,-6.93192 -0.62481,-10.50098 2.81308,-19.28341 l 1.0974,-2.8034 -0.6906,-0.96986 c -0.8725,-1.22531 -0.97946,-1.13999 -3.56318,2.84235 -2.64954,4.0838 -5.504413,9.74763 -6.496822,12.88916 -1.092267,3.45763 -1.629584,8.94708 -1.218157,12.44516 0.175952,1.496 0.282759,2.76542 0.237348,2.82095 -0.385713,0.47161 -4.103166,-4.87933 -5.183342,-7.46095 -2.224352,-5.31622 -1.50631,-12.64966 1.725221,-17.61988 0.579264,-0.89093 1.267472,-2.13268 1.529351,-2.75944 l 0.476145,-1.13958 -1.67533,-1.88055 C 9.919001,142.24034 5.033273,131.7208 2.65507,117.40969 1.423437,109.99819 1.337154,106.04263 1.337154,56.991589 V 9.4096898 h 11.153059 c 6.134183,0 12.038187,-0.09251 13.119997,-0.205586 1.31701,-0.137655 1.96694,-0.09191 1.96694,0.138436 0,0.189212 -0.26335,0.427608 -0.58523,0.529768 -1.72082,0.5461682 -5.174765,5.2986162 -5.174765,7.1202122 v 0.73717 H 15.725757 9.634359 l 0.115897,45.519998 c 0.101323,39.795502 0.181052,45.982792 0.633993,49.200002 1.778475,12.63241 4.919344,20.96862 11.291705,29.96942 0.912798,1.2893 0.985044,1.32441 2.394074,1.16338 1.758172,-0.20094 4.208932,0.28059 8.467122,1.66364 3.23628,1.05113 12.25519,4.58265 13.9763,5.47267 0.90209,0.46649 1.08321,0.41785 5.15931,-1.38534 l 4.2244,-1.8688 -0.0346,-3.98749 c -0.034,-3.9223 -0.67985,-7.56311 -1.79168,-10.10018 -0.38905,-0.88777 -0.41104,-0.83864 -0.51591,1.1527 -0.18143,3.4448 0.65441,8.4002 2.09787,12.43759 0.61275,1.71387 -3.70309,-3.61924 -6.3065,-7.79298 -1.36824,-2.19354 -4.79557,-8.8454 -5.46572,-10.60802 -0.26661,-0.70124 -0.40179,-0.79532 -0.62465,-0.43472 -0.24618,0.39833 -0.30689,0.39687 -0.45157,-0.0108 -0.20845,-0.58741 -0.97762,-6.54069 -1.52858,-11.83103 -0.55917,-5.36912 -0.55087,-22.296726 0.0135,-27.520002 1.00063,-9.260998 3.22505,-20.107261 5.13963,-25.060831 0.60105,-1.555074 0.33386,-1.728645 -0.33737,-0.219169 -1.99024,4.475676 -4.21309,12.612812 -5.37606,19.68 -1.89172,11.495751 -1.72195,26.449912 0.44139,38.880002 0.44415,2.552 0.94626,5.11466 1.11579,5.6948 0.28298,0.96837 0.24036,1.0806 -0.52019,1.36977 -0.45564,0.17323 -1.65293,0.40114 -2.66064,0.50647 l -1.83221,0.1915 0.27923,-1.72127 c 0.31674,-1.9525 0.15665,-3.54858 -0.70403,-7.0191 -1.04401,-4.2098 -2.64173,-8.02859 -7.82468,-18.70221 -7.745933,-15.951808 -8.292593,-17.419472 -9.289224,-24.939656 -1.069549,-8.070385 -0.514678,-17.414407 2.233987,-37.620345 0.251388,-1.848 0.617463,-5.232 0.8135,-7.52 0.867256,-10.121989 1.383625,-13.213386 2.733137,-16.362722 1.48387,-3.462917 5.75128,-5.545687 11.37857,-5.553479 1.68521,-0.0023 3.33268,-0.204722 4.27213,-0.5248252 1.28072,-0.436386 1.74484,-0.457877 2.857,-0.132295 1.60516,0.4699052 3.75702,1.6643802 5.48788,3.0462522 0.704,0.562057 1.6599,1.267592 2.12422,1.567857 l 0.84422,0.545936 -0.16494,-2.054833 c -0.1681,-2.09423 0.46194,-8.5419536 0.83249,-8.5195634 0.11221,0.00678 0.49201,0.4683504 0.84401,1.0257131 1.70113,2.6936111 5.95178,4.4810341 10.72,4.5078281 3.33981,0.01877 4.05562,-0.316814 6.97222,-3.2687142 3.85274,-3.8993612 8.22206,-5.4164388 16.44018,-5.7082122 11.83188,-0.4200754 19.60884,1.6022284 26.08108,6.7820664 6.12581,4.9025972 11.72907,13.5539672 14.5137,22.4089912 0.61883,1.967846 0.77006,5.515185 0.26832,6.293826 -0.16577,0.257271 -0.20227,-0.01771 -0.0921,-0.693826 l 0.18252,-1.12 -0.74091,0.96 c -2.2604,2.928846 -4.17803,3.877823 -8.42503,4.169301 -5.592,0.383787 -11.36528,-0.722164 -15.06832,-2.886544 -0.86442,-0.505243 -3.69795,-2.979001 -6.29672,-5.49724 -5.49674,-5.326392 -7.47014,-6.955984 -9.67495,-7.989358 -2.91278,-1.365194 -5.82123,-0.773743 -8.17387,1.662208 l -1.10613,1.145308 2.08,-0.981585 c 4.29523,-2.026986 5.48846,-1.358516 13.13889,7.360622 2.25016,2.564491 4.9089,5.280086 5.90832,6.034656 4.7931,3.618825 11.10649,5.057291 17.81676,4.059436 5.15159,-0.76607 7.66164,-2.001751 9.23396,-4.545817 0.38229,-0.618558 0.77172,-1.048003 0.8654,-0.954324 0.30592,0.305923 -1.46932,2.669773 -2.82037,3.755505 -1.22155,0.981664 -1.30611,1.149575 -1.13084,2.245627 0.10419,0.651547 0.33128,1.557716 0.50464,2.013708 0.31121,0.818534 0.32814,0.822396 1.33111,0.303737 0.55875,-0.288937 1.82512,-0.598717 2.81417,-0.688401 1.61097,-0.146078 1.90498,-0.07327 2.82285,0.699066 3.13026,2.633946 2.60435,12.833005 -1.52706,29.614094 -3.25955,13.239769 -10.20828,33.870552 -13.48333,40.032012 -0.52388,0.9856 -2.07908,3.23784 -3.45599,5.00497 -2.27452,2.91915 -13.25165,16.24406 -14.28538,17.34075 -0.2373,0.25175 0.12993,-0.68425 0.81606,-2.08 3.63679,-7.39808 6.07812,-18.01244 7.20777,-31.33773 0.28348,-3.344 0.47214,-7.376002 0.41923,-8.960002 l -0.0962,-2.88 -0.57572,4.960001 c -2.94193,25.345241 -5.9073,36.598321 -12.28699,46.627181 -1.4969,2.35311 -2.05651,5.09824 -1.94732,9.55243 l 0.09,3.67329 3.64804,1.5739 3.64804,1.5739 1.80143,-0.90935 c 5.32497,-2.68804 15.86549,-6.50576 19.06613,-6.90565 1.68727,-0.21081 2.13776,-0.43294 3.79743,-1.87245 2.69502,-2.3375 6.34443,-6.58852 8.68204,-10.11325 4.9257,-7.42717 7.64007,-14.72558 9.52096,-25.6 0.68414,-3.95539 0.69298,-4.51836 0.79314,-50.480002 l 0.10129,-46.479998 -8.40925,-0.0044 c -4.62508,-0.0024 -8.69724,-0.08303 -9.04924,-0.179162 -0.3534,-0.09652 -1.38388,-1.354489 -2.30114,-2.809145 -0.91362,-1.448895 -2.27894,-3.336218 -3.03404,-4.194051 l -1.3729,-1.5596972 8.95404,0.212592 c 4.92472,0.116925 12.30204,0.212871 16.39404,0.213212 l 7.44,6.21e-4 -0.001,46.4799992 c -0.001,46.057471 -0.0957,51.028231 -1.11933,58.960001 -1.80216,13.96361 -6.70631,25.75544 -14.66001,35.24938 -2.38034,2.84129 -6.09519,6.54248 -8.95017,8.91728 l -1.53081,1.27334 0.6661,1.95828 c 0.36636,1.07706 1.30175,2.92607 2.07864,4.10891 4.38125,6.67058 4.39599,14.97082 0.0382,21.5212 -1.37672,2.06941 -2.57774,3.61161 -2.81261,3.61161 -0.0598,0 -0.11312,-2.412 -0.11852,-5.36 -0.0128,-7.01067 -0.78054,-9.91368 -4.37562,-16.54596 -2.36228,-4.35798 -2.24725,-4.24691 -3.63233,-3.50748 -1.87291,0.99986 -1.9373,1.19792 -1.16851,3.5941 0.98115,3.05802 1.66627,6.55325 1.66627,8.5006 0,2.46116 -0.84943,8.45896 -1.42994,10.09676 -0.95776,2.70214 -3.0817,4.62257 -5.96873,5.39683 l -1.15868,0.31074 2.03391,-4.0428 c 1.21015,-2.40538 2.32601,-5.17538 2.75508,-6.83916 0.71291,-2.76437 0.71445,-2.81564 0.13434,-4.48 -0.94882,-2.72219 -8.50615,-14.96363 -9.23789,-14.96363 -0.15924,0 -1.48713,0.73184 -2.95088,1.62631 l -2.66137,1.62631 -0.23255,5.8921 c -0.29052,7.36093 -0.004,11.91942 0.87969,13.99871 0.3608,0.84889 1.63925,2.86489 2.84099,4.48 1.20175,1.61511 2.05077,2.98214 1.88672,3.03783 -0.41085,0.13949 -5.08409,-1.18797 -6.20042,-1.76126 -0.50036,-0.25696 -0.95584,-0.42058 -1.01218,-0.3636 -0.0563,0.057 0.0446,1.3996 0.22438,2.9836 0.40876,3.602 0.14333,10.6568 -0.53577,14.23999 -1.03636,5.46824 -3.19164,10.78396 -5.98973,14.77291 l -1.3707,1.95407 -2.14976,-2.3502 c -1.18236,-1.2926 -2.2084,-2.28417 -2.28007,-2.20348 -0.0717,0.0807 -0.52187,0.77513 -1.00044,1.54321 -1.27746,2.05029 -3.23061,4.05748 -4.9005,5.0361 -1.85521,1.08723 -4.88085,1.3175 -7.35549,0.55981 z m 12.98419,-10.6467 c 0.0866,-1.53308 -0.0466,-2.73619 -0.43413,-3.91897 -0.74534,-2.27511 -2.45536,-5.64434 -2.62061,-5.16334 -0.0725,0.21088 0.25415,1.79488 0.72577,3.52 1.16916,4.27657 1.49944,6.09852 1.36367,7.52229 -0.10214,1.071 -0.0611,1.15365 0.36256,0.72999 0.30044,-0.30044 0.52413,-1.29874 0.60274,-2.68997 z m 10.51006,-30.45435 c -2.32155,-4.37053 -3.4289,-10.77267 -2.65181,-15.33136 l 0.46366,-2.72 -0.90149,-0.8 c -0.49582,-0.44 -2.78769,-2.3571 -5.09305,-4.26021 -3.47176,-2.86599 -4.19195,-3.60785 -4.1938,-4.32 -0.009,-3.49312 -0.70751,-19.73669 -0.9038,-21.01979 -0.22017,-1.43922 -0.26712,-1.22857 -0.46713,2.09612 -0.1223,2.03286 -0.31449,7.50486 -0.42709,12.16 l -0.20474,8.46388 5.08769,4.15807 5.08769,4.15807 -0.12088,3.26561 c -0.20131,5.43819 0.8895,9.54354 3.68146,13.85554 1.41375,2.18344 1.72165,2.32419 0.64329,0.29407 z M 62.28325,167.39666 c 2.94515,-5.85265 3.46406,-7.93658 2.63286,-10.57346 -0.2945,-0.93426 -0.88455,-2.02662 -1.31122,-2.42746 l -0.77577,-0.72879 -3.30598,2.47886 c -1.81829,1.36338 -3.42427,2.58298 -3.56883,2.71022 -0.27124,0.23873 -1.58473,6.60277 -1.94704,9.43366 l -0.20478,1.6 2.64733,1.48284 c 1.74466,0.97723 2.77298,1.38196 3.01581,1.18698 0.20267,-0.16273 1.47059,-2.48601 2.81762,-5.16285 z m 60.128,-77.613979 c 0.09,-1.349146 0.0922,-2.092993 0.005,-1.652993 -0.0873,0.44 -0.50977,2.526377 -0.93887,4.636392 -0.97228,4.781099 -0.96525,5.621439 0.0179,2.136601 0.41383,-1.466854 0.82605,-3.770854 0.91605,-5.12 z m -0.91914,-12.297782 c 0.28879,-1.541188 0.47819,-3.268596 0.42088,-3.838685 -0.0722,-0.718731 -0.22965,-0.235792 -0.51338,1.575162 -0.22506,1.436429 -0.76318,4.073602 -1.19582,5.860386 -0.43265,1.786784 -0.77897,3.491524 -0.7696,3.788312 0.028,0.887278 1.49283,-4.369474 2.05792,-7.385175 z m -7.851,-2.635211 c 2.19591,-6.560708 6.51964,-26.399999 5.75355,-26.399999 -0.13586,0 -1.49374,0.72 -3.01751,1.6 -1.52376,0.88 -2.8293,1.6 -2.90121,1.6 -0.0719,0 -0.65343,-1.044 -1.29227,-2.32 -0.63885,-1.276 -1.21182,-2.375164 -1.27328,-2.442586 -0.119,-0.130551 -1.52423,1.038673 -4.13998,3.444677 -3.29548,3.031219 -2.48468,3.081438 -6.65296,-0.412077 -2.01464,-1.688508 -3.77093,-3.070014 -3.90286,-3.070014 -0.39356,0 0.12622,3.006959 0.96275,5.56961 2.27658,6.974103 5.85946,14.566056 8.83401,18.718812 1.05249,1.469381 2.18433,3.202233 2.5152,3.850783 0.8009,1.569909 1.60412,4.741425 1.63783,6.466984 l 0.0272,1.39381 1.24278,-2.56 c 0.68352,-1.408 1.67655,-3.856 2.20673,-5.44 z m -83.92536,0.1 c -0.10215,-0.255274 -0.17798,-0.179448 -0.19333,0.193334 -0.0139,0.337333 0.0617,0.526333 0.16807,0.42 0.10633,-0.106334 0.1177,-0.382334 0.0253,-0.613334 z m -0.31151,-7.7 c -0.0173,-9.546404 0.88476,-15.026862 3.13656,-19.055774 0.44313,-0.792852 0.75303,-1.49422 0.68865,-1.558595 -0.22542,-0.225423 -2.05985,3.593938 -2.71578,5.65437 -0.91918,2.887367 -1.65652,8.353601 -1.65652,12.280527 0,3.063576 0.32434,9.159472 0.48734,9.159472 0.0393,0 0.0662,-2.916 0.0597,-6.48 z m 100.57227,-6.479999 c 0.20151,-1.778211 0.21626,-3.430895 0.0386,-4.32 -0.25901,-1.29595 -0.29131,-1.146251 -0.32286,1.496477 -0.0193,1.615063 -0.32306,4.397648 -0.67506,6.183522 -0.352,1.785875 -0.62701,3.41646 -0.61112,3.623523 0.073,0.951502 1.27896,-4.411121 1.57047,-6.983522 z m -48.04293,-0.88 c -0.21235,-0.396 -0.63635,-1.8 -0.94223,-3.12 -0.43417,-1.873662 -0.5625,-2.147985 -0.58516,-1.250858 -0.0329,1.302695 0.68399,3.927687 1.26331,4.625725 0.57258,0.689919 0.70314,0.56391 0.26408,-0.254867 z m -7.02062,-10.16 c 0.15441,-1.188175 0.14894,-2.210344 -0.0127,-2.384 -0.16771,-0.180125 -0.2877,0.211061 -0.29445,0.96 -0.006,0.6952 -0.22002,2.128 -0.475,3.184 -0.25499,1.056 -0.45162,2.208 -0.43697,2.56 0.0438,1.052736 0.9282,-2.080973 1.21917,-4.32 z m -7.02958,-4.985622 c 1.20203,-1.085961 2.26617,-2.844013 2.24125,-3.702739 -0.007,-0.237402 -0.20506,3.61e-4 -0.44039,0.528361 -0.4718,1.058594 -2.29295,3.066558 -4.02708,4.440197 l -1.12,0.887172 1.05911,-0.521787 c 0.58252,-0.286983 1.61171,-1.021025 2.28711,-1.631204 z M 64.53716,38.63466 c 0.704,-0.377497 1.712,-1.150371 2.24,-1.717498 l 0.96,-1.03114 -1.6,1.123532 c -0.88,0.617942 -2.212,1.431694 -2.96,1.808337 -0.748,0.376643 -1.36,0.741425 -1.36,0.810627 0,0.224197 1.40758,-0.29012 2.72,-0.993858 z m 31.50729,-3.864971 c -0.007,-0.132 -0.6509,-0.933417 -1.43092,-1.780927 l -1.41821,-1.540927 -0.70942,0.660927 c -0.93946,0.875236 -2.26887,0.836559 -3.3549,-0.0976 -1.14006,-0.980638 -1.21246,-2.71205 -0.16023,-3.832088 l 0.7216,-0.768117 -1.36065,-1.000632 c -1.48357,-1.091029 -2.05236,-1.197506 -3.31757,-0.62104 -0.75661,0.344738 -0.81461,0.499003 -0.63157,1.68 0.48402,3.123142 2.7743,6.181597 5.31844,7.102281 1.17347,0.42466 6.36401,0.586778 6.34343,0.198126 z M 31.41898,31.393096 c 0.93558,-1.373126 2.4339,-3.157813 3.32961,-3.965971 1.31222,-1.183952 1.43313,-1.369016 0.62246,-0.952715 -1.40019,0.719033 -3.90623,3.627246 -5.19996,6.034461 -1.3259,2.467077 -0.98655,2.163649 1.24789,-1.115775 z m 33.82506,-0.928449 c 1.23229,-0.579242 2.33312,-1.61738 2.33312,-2.200246 0,-0.111587 -1.31676,-0.302287 -2.92613,-0.423778 -1.60938,-0.121492 -3.41471,-0.425034 -4.01186,-0.674539 -0.59715,-0.249504 -1.0022,-0.318505 -0.90012,-0.153334 0.33139,0.536205 3.42684,1.276939 5.33619,1.276939 1.02405,0 1.86192,0.11692 1.86192,0.259822 0,0.487032 -1.84919,1.628514 -3.7266,2.300389 -1.56861,0.561361 -1.66887,0.637811 -0.61626,0.469894 0.69142,-0.110299 1.88381,-0.495115 2.64974,-0.855147 z m 42.95711,-6.162083 c -0.95526,-0.939512 -6.58721,-3.596322 -6.91939,-3.264147 -0.11794,0.11794 0.25481,0.309207 4.12681,2.117584 1.53529,0.717036 2.95095,1.601781 3.14593,1.966102 0.19498,0.36432 0.44364,0.573267 0.55258,0.464327 0.10894,-0.108941 -0.29873,-0.68668 -0.90593,-1.283866 z m 12.816,1.164374 c 0,-0.404612 -2.58504,-3.008069 -3.84,-3.867356 -0.71606,-0.490301 -0.25731,0.116181 1.272,1.681614 2.49107,2.549915 2.568,2.615399 2.568,2.185742 z m -84.48,-7.446056 c 0.44,-0.155841 1.95201,-0.48819 3.36001,-0.738554 2.36708,-0.420904 2.44313,-0.457371 1.00925,-0.483923 -1.73258,-0.03208 -4.83087,0.764307 -5.80926,1.493221 l -0.64,0.476811 0.64,-0.232104 c 0.352,-0.127657 1,-0.35961 1.44,-0.515451 z m 72.1296,-2.566116 c -0.78201,-0.865811 -8.1296,-4.420277 -8.1296,-3.932769 0,0.09472 1.476,0.875848 3.28,1.735838 1.804,0.85999 3.712,1.857022 4.24,2.215627 1.22262,0.830375 1.37234,0.825783 0.6096,-0.0187 z M 66.46992,14.353811 c 2.52214,-0.655752 3.74118,-1.432244 6.75185,-4.300702 2.7404,-2.6109612 2.41758,-2.4887542 -0.84461,0.319741 -3.47525,2.991921 -5.02921,3.660023 -9.63455,4.142252 l -2.36545,0.247688 2.09276,0.04345 c 1.15103,0.0239 2.95103,-0.179696 4,-0.452429 z M 94.45716,11.96979 c -0.80678,-0.521211 -5.41634,-1.9813212 -5.82499,-1.845105 -0.2111,0.07037 0.97716,0.574577 2.64058,1.120467 3.21672,1.055639 3.95779,1.224275 3.18441,0.724638 z m 11.4338,-5.1491965 C 104.6494,6.0977584 101.6989,5.2714849 99.81133,5.1180196 97.85911,4.9592982 97.84745,4.9629817 99.25716,5.2931185 c 0.79199,0.1854771 2.59199,0.665681 3.99999,1.0671199 2.93369,0.8364314 3.42825,0.9228734 2.63381,0.4603551 z M 48.72936,10.086869 C 47.17733,8.2953338 47.13313,8.1946998 47.8177,8.0112388 c 0.3957,-0.106045 1.15813,-0.194776 1.69429,-0.197179 l 0.97483,-0.0044 -0.0148,2.078245 c -0.008,1.1430352 -0.0366,2.0790352 -0.0632,2.0800002 -0.0266,9.65e-4 -0.78234,-0.845515 -1.67946,-1.881066 z m 13.8878,-2.4769362 c -1.61932,-0.409756 -2.72,-0.8291864 -2.72,-1.0364973 0,-0.1246417 1.332,-0.4930458 2.96,-0.8186758 1.628,-0.3256299 4.673,-1.0074818 6.76667,-1.5152265 2.09366,-0.5077446 3.86654,-0.863295 3.93972,-0.7901121 0.3126,0.3125949 -1.9182,2.3885221 -3.4804,3.238776 -1.41027,0.7675667 -2.13262,0.9377187 -4.26203,1.0039437 -1.41018,0.04386 -2.85196,0.0069 -3.20396,-0.08221 z"
       id="path1" />
  </g>
</svg>
